<svg width="25" height="24" viewBox="0 0 25 24" fill="none" xmlns="http://www.w3.org/2000/svg">
<g clip-path="url(#clip0_111_1606)">
<path opacity="0.32" d="M5.46375 7.42284C6.04964 4.39257 8.32833 1.25 12.495 1.25C16.6617 1.25 18.8872 4.13715 19.5262 7.42284C20.1156 10.4531 21.87 10.625 21.87 13.3712C21.87 17.9167 15.62 17.9167 12.495 17.9167C9.37 17.9167 3.12 17.9167 3.12 13.3712C3.12 10.625 4.87786 10.4531 5.46375 7.42284Z" fill="#848484"/>
<path fill-rule="evenodd" clip-rule="evenodd" d="M8.79956 21.232C8.94768 20.8452 9.38135 20.6517 9.76817 20.7998C11.3287 21.3974 13.1542 21.4199 15.2848 20.7817C15.6816 20.6629 16.0996 20.8882 16.2184 21.285C16.3373 21.6818 16.112 22.0998 15.7152 22.2187C13.3458 22.9284 11.1705 22.943 9.23175 22.2006C8.84493 22.0525 8.65143 21.6188 8.79956 21.232Z" fill="#848484"/>
</g>
<defs>
<clipPath id="clip0_111_1606">
<rect width="24" height="24" fill="white" transform="translate(0.5)"/>
</clipPath>
</defs>
</svg>
