<svg width="25" height="24" viewBox="0 0 25 24" fill="none" xmlns="http://www.w3.org/2000/svg">
<g clip-path="url(#clip0_900_1518)">
<path opacity="0.32" d="M2.07996 12.3333V14.4167C2.07996 17.5417 2.07996 22.75 9.3717 22.75H15.6218C22.9135 22.75 22.9135 17.5417 22.9135 14.4167V12.3333C22.9135 9.20833 22.9135 3.25 15.6218 3.25H9.3717C2.07996 3.25 2.07996 9.20833 2.07996 12.3333Z" fill="#848484"/>
<path fill-rule="evenodd" clip-rule="evenodd" d="M5.5 1.25C5.91421 1.25 6.25 1.58579 6.25 2V6C6.25 6.41421 5.91421 6.75 5.5 6.75C5.08579 6.75 4.75 6.41421 4.75 6V2C4.75 1.58579 5.08579 1.25 5.5 1.25Z" fill="#848484"/>
<path fill-rule="evenodd" clip-rule="evenodd" d="M19.5 1.25C19.9142 1.25 20.25 1.58579 20.25 2V6C20.25 6.41421 19.9142 6.75 19.5 6.75C19.0858 6.75 18.75 6.41421 18.75 6V2C18.75 1.58579 19.0858 1.25 19.5 1.25Z" fill="#848484"/>
<path fill-rule="evenodd" clip-rule="evenodd" d="M6.25 17C6.25 16.5858 6.58579 16.25 7 16.25H8C8.41421 16.25 8.75 16.5858 8.75 17C8.75 17.4142 8.41421 17.75 8 17.75H7C6.58579 17.75 6.25 17.4142 6.25 17Z" fill="#848484"/>
<path fill-rule="evenodd" clip-rule="evenodd" d="M6.25 13C6.25 12.5858 6.58579 12.25 7 12.25H8C8.41421 12.25 8.75 12.5858 8.75 13C8.75 13.4142 8.41421 13.75 8 13.75H7C6.58579 13.75 6.25 13.4142 6.25 13Z" fill="#848484"/>
<path fill-rule="evenodd" clip-rule="evenodd" d="M6.25 9C6.25 8.58579 6.58579 8.25 7 8.25H8C8.41421 8.25 8.75 8.58579 8.75 9C8.75 9.41421 8.41421 9.75 8 9.75H7C6.58579 9.75 6.25 9.41421 6.25 9Z" fill="#848484"/>
<path fill-rule="evenodd" clip-rule="evenodd" d="M11.25 17C11.25 16.5858 11.5858 16.25 12 16.25H13C13.4142 16.25 13.75 16.5858 13.75 17C13.75 17.4142 13.4142 17.75 13 17.75H12C11.5858 17.75 11.25 17.4142 11.25 17Z" fill="#848484"/>
<path fill-rule="evenodd" clip-rule="evenodd" d="M11.25 13C11.25 12.5858 11.5858 12.25 12 12.25H13C13.4142 12.25 13.75 12.5858 13.75 13C13.75 13.4142 13.4142 13.75 13 13.75H12C11.5858 13.75 11.25 13.4142 11.25 13Z" fill="#848484"/>
<path fill-rule="evenodd" clip-rule="evenodd" d="M11.25 9C11.25 8.58579 11.5858 8.25 12 8.25H13C13.4142 8.25 13.75 8.58579 13.75 9C13.75 9.41421 13.4142 9.75 13 9.75H12C11.5858 9.75 11.25 9.41421 11.25 9Z" fill="#848484"/>
<path fill-rule="evenodd" clip-rule="evenodd" d="M16.25 17C16.25 16.5858 16.5858 16.25 17 16.25H18C18.4142 16.25 18.75 16.5858 18.75 17C18.75 17.4142 18.4142 17.75 18 17.75H17C16.5858 17.75 16.25 17.4142 16.25 17Z" fill="#848484"/>
<path fill-rule="evenodd" clip-rule="evenodd" d="M16.25 13C16.25 12.5858 16.5858 12.25 17 12.25H18C18.4142 12.25 18.75 12.5858 18.75 13C18.75 13.4142 18.4142 13.75 18 13.75H17C16.5858 13.75 16.25 13.4142 16.25 13Z" fill="#848484"/>
<path fill-rule="evenodd" clip-rule="evenodd" d="M16.25 9C16.25 8.58579 16.5858 8.25 17 8.25H18C18.4142 8.25 18.75 8.58579 18.75 9C18.75 9.41421 18.4142 9.75 18 9.75H17C16.5858 9.75 16.25 9.41421 16.25 9Z" fill="#848484"/>
</g>
<defs>
<clipPath id="clip0_900_1518">
<rect width="24" height="24" fill="white" transform="translate(0.5)"/>
</clipPath>
</defs>
</svg>
