<svg width="25" height="24" viewBox="0 0 25 24" fill="none" xmlns="http://www.w3.org/2000/svg">
<g clip-path="url(#clip0_42_5836)">
<path d="M16.5 4C16.5 5.10222 15.49 6 14.25 6H10.75C10.13 6 9.56997 5.77777 9.15997 5.41333C8.74997 5.04889 8.5 4.55111 8.5 4C8.5 2.89778 9.51 2 10.75 2H14.25C14.87 2 15.43 2.22223 15.84 2.58667C16.25 2.95111 16.5 3.44889 16.5 4Z" fill="#848484"/>
<path opacity="0.32" d="M14.7969 7.50023C16.4244 7.50023 17.75 6.26578 17.75 4.75023C17.75 4.71746 17.7494 4.68483 17.7482 4.65235C20.5 5.86923 20.5 8.49862 20.5 10.0004V16.0004C20.5 18.0004 20.5 22.0004 13.5 22.0004H11.5C4.5 22.0004 4.5 18.0004 4.5 16.0004V10.0004C4.5 8.49862 4.5 5.86922 7.25185 4.65234C7.25062 4.68483 7.25 4.71746 7.25 4.75023C7.25 5.508 7.57809 6.19244 8.11621 6.69356C8.65434 7.19467 9.38938 7.50023 10.2031 7.50023H14.7969Z" fill="#848484"/>
<path fill-rule="evenodd" clip-rule="evenodd" d="M8.75 11.5C8.75 11.0858 9.08579 10.75 9.5 10.75H15.5C15.9142 10.75 16.25 11.0858 16.25 11.5C16.25 11.9142 15.9142 12.25 15.5 12.25H9.5C9.08579 12.25 8.75 11.9142 8.75 11.5Z" fill="#848484"/>
<path fill-rule="evenodd" clip-rule="evenodd" d="M8.75 15.5C8.75 15.0858 9.08579 14.75 9.5 14.75H13.4999C13.9141 14.75 14.2499 15.0858 14.2499 15.5C14.2499 15.9142 13.9141 16.25 13.4999 16.25H9.5C9.08579 16.25 8.75 15.9142 8.75 15.5Z" fill="#848484"/>
</g>
<defs>
<clipPath id="clip0_42_5836">
<rect width="24" height="24" fill="white" transform="translate(0.5)"/>
</clipPath>
</defs>
</svg>
