<svg width="25" height="24" viewBox="0 0 25 24" fill="none" xmlns="http://www.w3.org/2000/svg">
<g clip-path="url(#clip0_578_1139)">
<path opacity="0.32" d="M2.5 9V13V13C2.5 15.2222 2.5 19.7778 8.05556 19.7778C10.2778 19.7778 10.2778 22 12.5 22C14.7222 22 14.7222 19.7778 16.9444 19.7778C22.5 19.7778 22.5 15.2222 22.5 13L22.5 9C22.5 6.5 22.5 2 14.5 2H10.5C2.5 2 2.5 6.5 2.5 9Z" fill="#848484"/>
<path fill-rule="evenodd" clip-rule="evenodd" d="M8.75 9C8.75 8.58579 9.08579 8.25 9.5 8.25H15.5C15.9142 8.25 16.25 8.58579 16.25 9C16.25 9.41421 15.9142 9.75 15.5 9.75H9.5C9.08579 9.75 8.75 9.41421 8.75 9Z" fill="#848484"/>
<path fill-rule="evenodd" clip-rule="evenodd" d="M8.75 13C8.75 12.5858 9.08579 12.25 9.5 12.25H15.5C15.9142 12.25 16.25 12.5858 16.25 13C16.25 13.4142 15.9142 13.75 15.5 13.75H9.5C9.08579 13.75 8.75 13.4142 8.75 13Z" fill="#848484"/>
</g>
<defs>
<clipPath id="clip0_578_1139">
<rect width="24" height="24" fill="white" transform="translate(0.5)"/>
</clipPath>
</defs>
</svg>
