<svg width="25" height="24" viewBox="0 0 25 24" fill="none" xmlns="http://www.w3.org/2000/svg">
<g clip-path="url(#clip0_42_5802)">
<path opacity="0.32" d="M2.5 12C2.5 17.5228 6.97715 22 12.5 22C18.0228 22 22.5 17.5228 22.5 12C22.5 6.47715 18.0228 2 12.5 2C6.97715 2 2.5 6.47715 2.5 12Z" fill="#848484"/>
<path fill-rule="evenodd" clip-rule="evenodd" d="M10.0891 9.58908C8.8083 10.8699 8.52831 13.9052 8.52831 13.9052C8.35627 15.541 8.959 16.1437 10.5948 15.9717C10.5948 15.9717 13.6301 15.6917 14.9109 14.4109C16.1917 13.1301 16.4717 10.0948 16.4717 10.0948C16.6437 8.45901 16.041 7.85628 14.4052 8.0283C14.4052 8.0283 11.3699 8.3083 10.0891 9.58908ZM11.5 12C11.5 12.5523 11.9477 13 12.5 13C13.0523 13 13.5 12.5523 13.5 12V11.999C13.5 11.4467 13.0523 10.999 12.5 10.999C11.9477 10.999 11.5 11.4467 11.5 11.999V12Z" fill="#848484"/>
</g>
<defs>
<clipPath id="clip0_42_5802">
<rect width="24" height="24" fill="white" transform="translate(0.5)"/>
</clipPath>
</defs>
</svg>
