<svg width="25" height="24" viewBox="0 0 25 24" fill="none" xmlns="http://www.w3.org/2000/svg">
<path opacity="0.32" fill-rule="evenodd" clip-rule="evenodd" d="M2.25 5C2.25 4.58579 2.56811 4.25 2.96053 4.25L10.5395 4.25C10.9319 4.25 11.25 4.58579 11.25 5C11.25 5.41421 10.9319 5.75 10.5395 5.75L2.96053 5.75C2.56811 5.75 2.25 5.41421 2.25 5Z" fill="#202226"/>
<path opacity="0.32" fill-rule="evenodd" clip-rule="evenodd" d="M2.25 19C2.25 18.5858 2.56811 18.25 2.96053 18.25L10.5395 18.25C10.9319 18.25 11.25 18.5858 11.25 19C11.25 19.4142 10.9319 19.75 10.5395 19.75L2.96053 19.75C2.56811 19.75 2.25 19.4142 2.25 19Z" fill="#848484"/>
<path opacity="0.32" fill-rule="evenodd" clip-rule="evenodd" d="M13.75 12C13.75 11.5858 14.0681 11.25 14.4605 11.25L22.0395 11.25C22.4319 11.25 22.75 11.5858 22.75 12C22.75 12.4142 22.4319 12.75 22.0395 12.75L14.4605 12.75C14.0681 12.75 13.75 12.4142 13.75 12Z" fill="#848484"/>
<path opacity="0.32" fill-rule="evenodd" clip-rule="evenodd" d="M17.75 5C17.75 4.58579 18.1231 4.25 18.5833 4.25L21.9167 4.25C22.3769 4.25 22.75 4.58579 22.75 5C22.75 5.41421 22.3769 5.75 21.9167 5.75L18.5833 5.75C18.1231 5.75 17.75 5.41421 17.75 5Z" fill="#848484"/>
<path opacity="0.32" fill-rule="evenodd" clip-rule="evenodd" d="M17.75 19C17.75 18.5858 18.1231 18.25 18.5833 18.25L21.9167 18.25C22.3769 18.25 22.75 18.5858 22.75 19C22.75 19.4142 22.3769 19.75 21.9167 19.75L18.5833 19.75C18.1231 19.75 17.75 19.4142 17.75 19Z" fill="#848484"/>
<path opacity="0.32" fill-rule="evenodd" clip-rule="evenodd" d="M2.25 12C2.25 11.5858 2.6231 11.25 3.08333 11.25L6.41667 11.25C6.8769 11.25 7.25 11.5858 7.25 12C7.25 12.4142 6.8769 12.75 6.41667 12.75L3.08333 12.75C2.6231 12.75 2.25 12.4142 2.25 12Z" fill="#848484"/>
<path d="M16.5 2C14.8431 2 13.5 3.34315 13.5 5C13.5 6.65685 14.8431 8 16.5 8C18.1569 8 19.5 6.65685 19.5 5C19.5 3.34315 18.1569 2 16.5 2Z" fill="#848484"/>
<path d="M16.5 16C14.8431 16 13.5 17.3431 13.5 19C13.5 20.6569 14.8431 22 16.5 22C18.1569 22 19.5 20.6569 19.5 19C19.5 17.3431 18.1569 16 16.5 16Z" fill="#848484"/>
<path d="M8.5 9C6.84315 9 5.5 10.3431 5.5 12C5.5 13.6569 6.84315 15 8.5 15C10.1569 15 11.5 13.6569 11.5 12C11.5 10.3431 10.1569 9 8.5 9Z" fill="#848484"/>
</svg>
