<svg width="25" height="24" viewBox="0 0 25 24" fill="none" xmlns="http://www.w3.org/2000/svg">
<g clip-path="url(#clip0_264_574)">
<path opacity="0.32" d="M4.5 13.25V15C4.5 17.5 4.5 22 10.4999 22H14.5C20.5 22 20.5 17.5 20.5 15V13.25H4.5Z" fill="#A2A5B1"/>
<path fill-rule="evenodd" clip-rule="evenodd" d="M8.75 18C8.75 17.5858 9.08579 17.25 9.5 17.25H15.5C15.9142 17.25 16.25 17.5858 16.25 18C16.25 18.4142 15.9142 18.75 15.5 18.75H9.5C9.08579 18.75 8.75 18.4142 8.75 18Z" fill="#A2A5B1"/>
<path d="M16.7857 4.74376L22.5 12H2.5L8.21429 4.74376C10.8333 1.08541 14.1667 1.08541 16.7857 4.74376Z" fill="#A2A5B1"/>
</g>
<defs>
<clipPath id="clip0_264_574">
<rect width="24" height="24" fill="white" transform="translate(0.5)"/>
</clipPath>
</defs>
</svg>
