<svg width="93" height="38" viewBox="0 0 93 38" fill="none" xmlns="http://www.w3.org/2000/svg">
<g clip-path="url(#clip0_111_1601)">
<path opacity="0.32" d="M36.5 12C36.5 17.5228 40.9772 22 46.5 22C52.0228 22 56.5 17.5228 56.5 12C56.5 6.47715 52.0228 2 46.5 2C40.9772 2 36.5 6.47715 36.5 12Z" fill="#838383"/>
<path fill-rule="evenodd" clip-rule="evenodd" d="M44.0891 9.58908C42.8083 10.8699 42.5283 13.9052 42.5283 13.9052C42.3563 15.541 42.959 16.1437 44.5948 15.9717C44.5948 15.9717 47.6301 15.6917 48.9109 14.4109C50.1917 13.1301 50.4717 10.0948 50.4717 10.0948C50.6437 8.45901 50.041 7.85628 48.4052 8.0283C48.4052 8.0283 45.3699 8.3083 44.0891 9.58908ZM45.5 12C45.5 12.5523 45.9477 13 46.5 13C47.0523 13 47.5 12.5523 47.5 12V11.999C47.5 11.4467 47.0523 10.999 46.5 10.999C45.9477 10.999 45.5 11.4467 45.5 11.999V12Z" fill="#838383"/>
</g>
<defs>
<clipPath id="clip0_111_1601">
<rect width="24" height="24" fill="white" transform="translate(34.5)"/>
</clipPath>
</defs>
</svg>
