<svg width="25" height="24" viewBox="0 0 25 24" fill="none" xmlns="http://www.w3.org/2000/svg">
<g id="Settings">
<path id="Vector" opacity="0.32" d="M14.6612 3.46333C14.1878 1.51222 11.4123 1.51222 10.9389 3.46333C10.6323 4.72444 9.19227 5.32222 8.08116 4.64667C6.3656 3.60222 4.40338 5.56556 5.44783 7.28C5.90005 8 5.95005 9.6 4.26338 10.1389C2.31227 10.6122 2.31227 13.3878 4.26338 13.8611C5.68959 14.2071 6.03049 15.76 5.44672 16.7189C4.40227 18.4344 6.3656 20.3967 8.08005 19.3522C9.30005 18.65 10.6224 19.3522 10.9389 20.5367C11.4123 22.4878 14.1878 22.4878 14.6612 20.5367C15.05 19.25 16.3958 18.6695 17.5189 19.3533C19.2345 20.3978 21.1967 18.4344 20.1523 16.72C19.521 15.6838 19.9979 14.1859 21.3367 13.8611C23.2878 13.3878 23.2878 10.6122 21.3367 10.1389C20.1226 9.84435 19.4656 8.41079 20.1534 7.28111C21.1978 5.56556 19.2345 3.60333 17.52 4.64778C16.3 5.5 14.8 4.5 14.6612 3.46333Z" fill="#848484"/>
<path id="Vector_2" d="M12.8 8.5C10.8671 8.5 9.30005 10.067 9.30005 12C9.30005 13.933 10.8671 15.5 12.8 15.5C14.733 15.5 16.3 13.933 16.3 12C16.3 10.067 14.733 8.5 12.8 8.5Z" fill="#848484"/>
</g>
</svg>
